{
    "asset" : {
        "generator" : "Khronos glTF Blender I/O v1.1.45",
        "version" : "2.0"
    },
    "scene" : 0,
    "scenes" : [
        {
            "name" : "Scene",
            "nodes" : [
                0,
                1,
                2,
                3
            ]
        }
    ],
    "nodes" : [
        {
            "mesh" : 0,
            "name" : "pillards",
            "rotation" : [
                0.056916143745183945,
                -0.9858121275901794,
                0.009101709350943565,
                -0.15764552354812622
            ],
            "translation" : [
                -5.7693657875061035,
                -5.057927131652832,
                0.6092038750648499
            ]
        },
        {
            "mesh" : 1,
            "name" : "floor",
            "translation" : [
                0,
                -6.525483131408691,
                2.1190431118011475
            ]
        },
        {
            "mesh" : 2,
            "name" : "sword",
            "rotation" : [
                -0.04216143488883972,
                0.23111750185489655,
                0.1744396984577179,
                0.9562311172485352
            ],
            "scale" : [
                0.10955582559108734,
                0.10955582559108734,
                0.10955582559108734
            ],
            "translation" : [
                -7.855428218841553,
                -2.0105714797973633,
                6.65072774887085
            ]
        },
        {
            "mesh" : 3,
            "name" : "rocks",
            "scale" : [
                1.8054475784301758,
                1.8054475784301758,
                1.8054475784301758
            ],
            "translation" : [
                5.302186012268066,
                -5.148322105407715,
                5.600135803222656
            ]
        }
    ],
    "materials" : [
        {
            "doubleSided" : true,
            "emissiveFactor" : [
                0,
                0,
                0
            ],
            "name" : "pillar",
            "pbrMetallicRoughness" : {
                "baseColorTexture" : {
                    "index" : 0,
                    "texCoord" : 0
                },
                "metallicFactor" : 0,
                "roughnessFactor" : 0.2651166021823883
            }
        },
        {
            "doubleSided" : true,
            "emissiveFactor" : [
                0,
                0,
                0
            ],
            "name" : "floor",
            "pbrMetallicRoughness" : {
                "baseColorTexture" : {
                    "index" : 1,
                    "texCoord" : 0
                },
                "metallicFactor" : 0,
                "roughnessFactor" : 1
            }
        },
        {
            "doubleSided" : true,
            "emissiveFactor" : [
                0,
                0,
                0
            ],
            "name" : "swordGard",
            "pbrMetallicRoughness" : {
                "baseColorTexture" : {
                    "index" : 2,
                    "texCoord" : 0
                },
                "metallicFactor" : 0,
                "roughnessFactor" : 0.5
            }
        },
        {
            "doubleSided" : true,
            "emissiveFactor" : [
                0,
                0,
                0
            ],
            "name" : "swordLeather",
            "pbrMetallicRoughness" : {
                "baseColorTexture" : {
                    "index" : 3,
                    "texCoord" : 0
                },
                "metallicFactor" : 0,
                "roughnessFactor" : 0.978787899017334
            }
        },
        {
            "doubleSided" : true,
            "emissiveFactor" : [
                0,
                0,
                0
            ],
            "name" : "swordSteal",
            "pbrMetallicRoughness" : {
                "baseColorTexture" : {
                    "index" : 4,
                    "texCoord" : 0
                },
                "metallicFactor" : 0.3030303120613098,
                "roughnessFactor" : 1
            }
        },
        {
            "doubleSided" : true,
            "emissiveFactor" : [
                0,
                0,
                0
            ],
            "name" : "Rocks",
            "pbrMetallicRoughness" : {
                "baseColorTexture" : {
                    "index" : 5,
                    "texCoord" : 0
                },
                "metallicFactor" : 0,
                "roughnessFactor" : 1
            }
        }
    ],
    "meshes" : [
        {
            "name" : "Cube.004",
            "primitives" : [
                {
                    "attributes" : {
                        "POSITION" : 0,
                        "NORMAL" : 1,
                        "TEXCOORD_0" : 2
                    },
                    "indices" : 3,
                    "material" : 0
                }
            ]
        },
        {
            "name" : "Cube.003",
            "primitives" : [
                {
                    "attributes" : {
                        "POSITION" : 4,
                        "NORMAL" : 5,
                        "TEXCOORD_0" : 6,
                        "TEXCOORD_1" : 7
                    },
                    "indices" : 8,
                    "material" : 1
                }
            ]
        },
        {
            "name" : "Icosphere.003",
            "primitives" : [
                {
                    "attributes" : {
                        "POSITION" : 9,
                        "NORMAL" : 10,
                        "TEXCOORD_0" : 11
                    },
                    "indices" : 12,
                    "material" : 2
                },
                {
                    "attributes" : {
                        "POSITION" : 13,
                        "NORMAL" : 14,
                        "TEXCOORD_0" : 15
                    },
                    "indices" : 16,
                    "material" : 3
                },
                {
                    "attributes" : {
                        "POSITION" : 17,
                        "NORMAL" : 18,
                        "TEXCOORD_0" : 19
                    },
                    "indices" : 20,
                    "material" : 4
                }
            ]
        },
        {
            "name" : "Icosphere",
            "primitives" : [
                {
                    "attributes" : {
                        "POSITION" : 21,
                        "NORMAL" : 22,
                        "TEXCOORD_0" : 23
                    },
                    "indices" : 24,
                    "material" : 5
                }
            ]
        }
    ],
    "textures" : [
        {
            "source" : 0
        },
        {
            "source" : 1
        },
        {
            "source" : 2
        },
        {
            "source" : 2
        },
        {
            "source" : 2
        },
        {
            "source" : 3
        }
    ],
    "images" : [
        {
            "mimeType" : "image/png",
            "name" : "pilardBaking",
            "uri" : "pilardBaking.png"
        },
        {
            "mimeType" : "image/png",
            "name" : "floorBaking",
            "uri" : "floorBaking.png"
        },
        {
            "mimeType" : "image/png",
            "name" : "swordBaking",
            "uri" : "swordBaking.png"
        },
        {
            "mimeType" : "image/png",
            "name" : "RockBaking",
            "uri" : "RockBaking.png"
        }
    ],
    "accessors" : [
        {
            "bufferView" : 0,
            "componentType" : 5126,
            "count" : 1192,
            "max" : [
                1.451933741569519,
                10.111116409301758,
                5.862786293029785
            ],
            "min" : [
                -14.690572738647461,
                -2.4644036293029785,
                -1.9984328746795654
            ],
            "type" : "VEC3"
        },
        {
            "bufferView" : 1,
            "componentType" : 5126,
            "count" : 1192,
            "type" : "VEC3"
        },
        {
            "bufferView" : 2,
            "componentType" : 5126,
            "count" : 1192,
            "type" : "VEC2"
        },
        {
            "bufferView" : 3,
            "componentType" : 5123,
            "count" : 1812,
            "type" : "SCALAR"
        },
        {
            "bufferView" : 4,
            "componentType" : 5126,
            "count" : 490,
            "max" : [
                11.9690580368042,
                1.0254093408584595,
                11.9690580368042
            ],
            "min" : [
                -11.9690580368042,
                -0.43617451190948486,
                -11.9690580368042
            ],
            "type" : "VEC3"
        },
        {
            "bufferView" : 5,
            "componentType" : 5126,
            "count" : 490,
            "type" : "VEC3"
        },
        {
            "bufferView" : 6,
            "componentType" : 5126,
            "count" : 490,
            "type" : "VEC2"
        },
        {
            "bufferView" : 7,
            "componentType" : 5126,
            "count" : 490,
            "type" : "VEC2"
        },
        {
            "bufferView" : 8,
            "componentType" : 5123,
            "count" : 798,
            "type" : "SCALAR"
        },
        {
            "bufferView" : 9,
            "componentType" : 5126,
            "count" : 96,
            "max" : [
                1.694006085395813,
                1.429018497467041,
                1.4290220737457275
            ],
            "min" : [
                -1.6940213441848755,
                -50.42714309692383,
                -1.429018259048462
            ],
            "type" : "VEC3"
        },
        {
            "bufferView" : 10,
            "componentType" : 5126,
            "count" : 96,
            "type" : "VEC3"
        },
        {
            "bufferView" : 11,
            "componentType" : 5126,
            "count" : 96,
            "type" : "VEC2"
        },
        {
            "bufferView" : 12,
            "componentType" : 5123,
            "count" : 264,
            "type" : "SCALAR"
        },
        {
            "bufferView" : 13,
            "componentType" : 5126,
            "count" : 40,
            "max" : [
                1.1865986585617065,
                -0.4165324866771698,
                1.1866116523742676
            ],
            "min" : [
                -1.1866203546524048,
                -18.672061920166016,
                -1.1866071224212646
            ],
            "type" : "VEC3"
        },
        {
            "bufferView" : 14,
            "componentType" : 5126,
            "count" : 40,
            "type" : "VEC3"
        },
        {
            "bufferView" : 15,
            "componentType" : 5126,
            "count" : 40,
            "type" : "VEC2"
        },
        {
            "bufferView" : 16,
            "componentType" : 5123,
            "count" : 96,
            "type" : "SCALAR"
        },
        {
            "bufferView" : 17,
            "componentType" : 5126,
            "count" : 104,
            "max" : [
                10.166958808898926,
                -17.923599243164062,
                1.2012171745300293
            ],
            "min" : [
                -10.166972160339355,
                -20.326030731201172,
                -1.201212763786316
            ],
            "type" : "VEC3"
        },
        {
            "bufferView" : 18,
            "componentType" : 5126,
            "count" : 104,
            "type" : "VEC3"
        },
        {
            "bufferView" : 19,
            "componentType" : 5126,
            "count" : 104,
            "type" : "VEC2"
        },
        {
            "bufferView" : 20,
            "componentType" : 5123,
            "count" : 156,
            "type" : "SCALAR"
        },
        {
            "bufferView" : 21,
            "componentType" : 5126,
            "count" : 960,
            "max" : [
                1.1114850044250488,
                0.8657379150390625,
                0.9655808806419373
            ],
            "min" : [
                -6.6363844871521,
                -0.507270097732544,
                -5.457435607910156
            ],
            "type" : "VEC3"
        },
        {
            "bufferView" : 22,
            "componentType" : 5126,
            "count" : 960,
            "type" : "VEC3"
        },
        {
            "bufferView" : 23,
            "componentType" : 5126,
            "count" : 960,
            "type" : "VEC2"
        },
        {
            "bufferView" : 24,
            "componentType" : 5123,
            "count" : 960,
            "type" : "SCALAR"
        }
    ],
    "bufferViews" : [
        {
            "buffer" : 0,
            "byteLength" : 14304,
            "byteOffset" : 0
        },
        {
            "buffer" : 0,
            "byteLength" : 14304,
            "byteOffset" : 14304
        },
        {
            "buffer" : 0,
            "byteLength" : 9536,
            "byteOffset" : 28608
        },
        {
            "buffer" : 0,
            "byteLength" : 3624,
            "byteOffset" : 38144
        },
        {
            "buffer" : 0,
            "byteLength" : 5880,
            "byteOffset" : 41768
        },
        {
            "buffer" : 0,
            "byteLength" : 5880,
            "byteOffset" : 47648
        },
        {
            "buffer" : 0,
            "byteLength" : 3920,
            "byteOffset" : 53528
        },
        {
            "buffer" : 0,
            "byteLength" : 3920,
            "byteOffset" : 57448
        },
        {
            "buffer" : 0,
            "byteLength" : 1596,
            "byteOffset" : 61368
        },
        {
            "buffer" : 0,
            "byteLength" : 1152,
            "byteOffset" : 62964
        },
        {
            "buffer" : 0,
            "byteLength" : 1152,
            "byteOffset" : 64116
        },
        {
            "buffer" : 0,
            "byteLength" : 768,
            "byteOffset" : 65268
        },
        {
            "buffer" : 0,
            "byteLength" : 528,
            "byteOffset" : 66036
        },
        {
            "buffer" : 0,
            "byteLength" : 480,
            "byteOffset" : 66564
        },
        {
            "buffer" : 0,
            "byteLength" : 480,
            "byteOffset" : 67044
        },
        {
            "buffer" : 0,
            "byteLength" : 320,
            "byteOffset" : 67524
        },
        {
            "buffer" : 0,
            "byteLength" : 192,
            "byteOffset" : 67844
        },
        {
            "buffer" : 0,
            "byteLength" : 1248,
            "byteOffset" : 68036
        },
        {
            "buffer" : 0,
            "byteLength" : 1248,
            "byteOffset" : 69284
        },
        {
            "buffer" : 0,
            "byteLength" : 832,
            "byteOffset" : 70532
        },
        {
            "buffer" : 0,
            "byteLength" : 312,
            "byteOffset" : 71364
        },
        {
            "buffer" : 0,
            "byteLength" : 11520,
            "byteOffset" : 71676
        },
        {
            "buffer" : 0,
            "byteLength" : 11520,
            "byteOffset" : 83196
        },
        {
            "buffer" : 0,
            "byteLength" : 7680,
            "byteOffset" : 94716
        },
        {
            "buffer" : 0,
            "byteLength" : 1920,
            "byteOffset" : 102396
        }
    ],
    "buffers" : [
        {
            "byteLength" : 104316,
            "uri" : "decor.glb.bin"
        }
    ]
}
